<?xml version="1.0" encoding="iso-8859-1"?>
<!DOCTYPE svg PUBLIC "-//W3C//DTD SVG 1.1//EN" "http://www.w3.org/Graphics/SVG/1.1/DTD/svg11.dtd">
<svg 
 version="1.1" xmlns="http://www.w3.org/2000/svg" xmlns:xlink="http://www.w3.org/1999/xlink" x="0px" y="0px" width="512px"
	 height="512px" viewBox="0 0 512 512" enable-background="new 0 0 512 512" xml:space="preserve"
><g id="2020da7681f0d538108a21c602003e3d"><g></g><path display="inline" d="M256,106.958c-82.31,0-149.042,66.732-149.042,149.042S173.69,405.042,256,405.042
		S405.042,338.31,405.042,256S338.31,106.958,256,106.958z M256,379.491c-68.094,0-123.492-55.399-123.492-123.491
		c0-68.094,55.398-123.492,123.492-123.492c68.092,0,123.491,55.398,123.491,123.492C379.491,324.092,324.092,379.491,256,379.491z
		 M234.708,57.276C234.708,41.599,244.24,0.5,256,0.5c11.761,0,21.292,41.099,21.292,56.776c0,15.682-9.531,28.39-21.292,28.39
		C244.24,85.667,234.708,72.958,234.708,57.276z M277.292,454.72c0,15.678-9.531,56.78-21.292,56.78
		c-11.76-0.004-21.292-41.103-21.292-56.78c0-15.682,9.531-28.387,21.292-28.391C267.761,426.333,277.292,439.042,277.292,454.72z
		 M57.276,277.292C41.599,277.292,0.5,267.761,0.5,256c0-11.76,41.099-21.292,56.776-21.292c15.682,0,28.39,9.531,28.39,21.292
		C85.667,267.761,72.958,277.292,57.276,277.292z M511.5,256c-0.004,11.761-41.103,21.292-56.78,21.292
		c-15.682,0-28.387-9.531-28.391-21.292c0.004-11.76,12.713-21.292,28.391-21.292S511.5,244.24,511.5,256z M125.435,386.565
		c8.317,8.317,6.067,24.04-5.019,35.131c-11.087,11.087-67.967,54.485-76.28,46.168c-8.317-8.313,35.082-65.193,46.168-76.279
		C101.394,380.498,117.118,378.248,125.435,386.565z M387.609,124.391c-8.313-8.321-6.063-24.045,5.02-35.131
		c11.086-11.087,70.981-57.5,79.294-49.183c8.313,8.317-38.096,68.208-49.183,79.295S395.931,132.704,387.609,124.391z
		 M421.696,391.585c11.087,11.086,54.485,67.967,46.168,76.279c-8.309,8.317-65.188-35.081-76.275-46.168
		c-11.087-11.091-13.341-26.813-5.023-35.131S410.61,380.498,421.696,391.585z M89.264,119.372
		C78.177,108.285,31.76,48.39,40.077,40.077s68.208,38.096,79.295,49.183c11.086,11.086,13.332,26.81,5.023,35.131
		C116.07,132.704,100.351,130.454,89.264,119.372z"></path></g></svg>